<svg width="320" height="320" viewBox="0 0 320 320" fill="none" xmlns="http://www.w3.org/2000/svg" role="img" aria-label="Jianxin Tang avatar">
  <rect width="320" height="320" rx="28" fill="#F5F5F3"/>
  <path d="M58 235C78 194 111 174 160 174C209 174 242 194 262 235V320H58V235Z" fill="#000031"/>
  <circle cx="160" cy="122" r="62" fill="#D7E7EA"/>
  <path d="M105 119C112 73 144 50 190 58C219 63 238 85 240 115C221 103 198 97 171 96C141 95 119 103 105 119Z" fill="#363737"/>
  <path d="M107 132C121 146 139 153 160 153C181 153 199 146 213 132" stroke="#363737" stroke-width="7" stroke-linecap="round"/>
  <circle cx="137" cy="120" r="5" fill="#000031"/>
  <circle cx="183" cy="120" r="5" fill="#000031"/>
  <path d="M138 227H182" stroke="#22B8CF" stroke-width="8" stroke-linecap="round"/>
  <path d="M132 247H188" stroke="#E94444" stroke-width="8" stroke-linecap="round"/>
  <path d="M45 45H102" stroke="#000031" stroke-width="6" stroke-linecap="round"/>
  <path d="M45 66H84" stroke="#868787" stroke-width="5" stroke-linecap="round"/>
  <circle cx="258" cy="60" r="11" fill="#22B8CF"/>
  <circle cx="236" cy="81" r="9" fill="#E94444"/>
</svg>
